<?xml version="1.0" encoding="utf-8"?>
<!-- Generator: Adobe Illustrator 24.2.3, SVG Export Plug-In . SVG Version: 6.00 Build 0)  -->
<svg version="1.1" baseProfile="tiny" id="Layer_1" xmlns="http://www.w3.org/2000/svg" xmlns:xlink="http://www.w3.org/1999/xlink"
	 x="0px" y="0px" viewBox="0 0 433.5 89.7" overflow="visible" xml:space="preserve">
<g>
	<path fill="#FFFFFF" d="M62.7,68.4L43.7,24.6c-2.2-5,0.2-10.9,5.2-13.1l1.4-0.6c5-2.2,10.9,0.2,13.1,5.2l18.9,43.7
		c2.2,5-0.2,10.9-5.2,13.1l-1.4,0.6C70.7,75.7,64.8,73.4,62.7,68.4z"/>
	<path fill="#FFFFFF" d="M39.9,70.5l3.4-7c1.8-3.8,0.3-8.4-3.5-10.2L38,52.4c-3.8-1.8-8.4-0.3-10.2,3.5l-3.4,7
		c-1.8,3.8-0.3,8.4,3.5,10.2l1.9,0.9C33.5,75.8,38.1,74.2,39.9,70.5z"/>
	<path fill="#FFFFFF" d="M96.5,68.3L77.5,24.6c-2.2-5,0.2-10.9,5.2-13.1l1.4-0.6c5-2.2,10.9,0.2,13.1,5.2l18.9,43.7
		c2.2,5-0.2,10.9-5.2,13.1l-1.4,0.6C104.6,75.7,98.7,73.4,96.5,68.3z"/>
</g>
<g>
	<g>
		<path fill="#FFFFFF" d="M193,36.9c2.1,1.1,3.7,2.7,4.9,4.8c1.2,2.1,1.8,4.7,1.8,7.7v19.6h-6.8V50.5c0-3-0.7-5.3-2.2-6.9
			c-1.5-1.6-3.5-2.4-6.1-2.4c-2.6,0-4.6,0.8-6.1,2.4c-1.5,1.6-2.3,3.9-2.3,6.9v18.6h-6.8V50.5c0-3-0.7-5.3-2.2-6.9
			c-1.5-1.6-3.5-2.4-6.1-2.4c-2.6,0-4.6,0.8-6.1,2.4c-1.5,1.6-2.3,3.9-2.3,6.9v18.6h-6.9V35.8h6.9v3.8c1.1-1.4,2.6-2.4,4.3-3.2
			c1.7-0.8,3.6-1.1,5.6-1.1c2.7,0,5,0.6,7.1,1.7c2.1,1.1,3.7,2.8,4.8,4.9c1-2,2.6-3.6,4.7-4.8c2.1-1.2,4.4-1.8,6.9-1.8
			C188.6,35.3,190.9,35.8,193,36.9z"/>
		<path fill="#FFFFFF" d="M206.8,43.4c1.4-2.6,3.3-4.6,5.8-6c2.5-1.4,5.3-2.1,8.5-2.1c4,0,7.4,1,10,2.9c2.6,1.9,4.4,4.6,5.3,8.2H229
			c-0.6-1.7-1.6-2.9-2.9-3.9c-1.3-0.9-3-1.4-5-1.4c-2.8,0-5.1,1-6.7,3c-1.7,2-2.5,4.8-2.5,8.4c0,3.6,0.8,6.4,2.5,8.4
			c1.7,2,3.9,3,6.7,3c4,0,6.6-1.8,7.9-5.3h7.4c-1,3.4-2.8,6.1-5.4,8.1c-2.7,2-6,3-9.9,3c-3.2,0-6-0.7-8.5-2.1
			c-2.5-1.4-4.4-3.4-5.8-6c-1.4-2.6-2.1-5.6-2.1-9C204.7,49,205.4,46,206.8,43.4z"/>
		<path fill="#FFFFFF" d="M241.7,43.4c1.4-2.6,3.3-4.6,5.8-6c2.5-1.4,5.3-2.1,8.5-2.1c4,0,7.4,1,10,2.9c2.6,1.9,4.4,4.6,5.3,8.2
			h-7.4c-0.6-1.7-1.6-2.9-2.9-3.9c-1.3-0.9-3-1.4-5-1.4c-2.8,0-5.1,1-6.7,3c-1.7,2-2.5,4.8-2.5,8.4c0,3.6,0.8,6.4,2.5,8.4
			c1.7,2,3.9,3,6.7,3c4,0,6.6-1.8,7.9-5.3h7.4c-1,3.4-2.8,6.1-5.4,8.1c-2.7,2-6,3-9.9,3c-3.2,0-6-0.7-8.5-2.1
			c-2.5-1.4-4.4-3.4-5.8-6c-1.4-2.6-2.1-5.6-2.1-9C239.6,49,240.3,46,241.7,43.4z"/>
		<path fill="#FFFFFF" d="M276.5,43.4c1.4-2.6,3.3-4.6,5.7-6c2.4-1.4,5-2.1,7.9-2.1c2.6,0,4.9,0.5,6.9,1.5s3.5,2.3,4.7,3.8v-4.8h6.9
			v33.3h-6.9v-5c-1.2,1.6-2.8,2.9-4.8,3.9c-2,1-4.3,1.6-6.9,1.6c-2.9,0-5.5-0.7-7.9-2.2c-2.4-1.5-4.3-3.5-5.6-6.2
			c-1.4-2.6-2.1-5.6-2.1-9C274.4,49,275.1,46,276.5,43.4z M300.3,46.4c-0.9-1.7-2.2-3-3.7-3.9c-1.5-0.9-3.2-1.3-5-1.3
			c-1.8,0-3.4,0.4-5,1.3c-1.5,0.9-2.8,2.1-3.7,3.8c-0.9,1.7-1.4,3.7-1.4,6s0.5,4.3,1.4,6c0.9,1.7,2.2,3.1,3.7,4
			c1.5,0.9,3.2,1.4,4.9,1.4c1.8,0,3.4-0.4,5-1.3c1.5-0.9,2.8-2.2,3.7-3.9c0.9-1.7,1.4-3.7,1.4-6S301.2,48.1,300.3,46.4z"/>
		<path fill="#FFFFFF" d="M316.7,30.1c-0.8-0.8-1.3-1.9-1.3-3.1c0-1.2,0.4-2.3,1.3-3.1c0.8-0.8,1.9-1.3,3.1-1.3
			c1.2,0,2.2,0.4,3.1,1.3c0.8,0.8,1.3,1.9,1.3,3.1c0,1.2-0.4,2.3-1.3,3.1s-1.9,1.3-3.1,1.3C318.5,31.4,317.5,31,316.7,30.1z
			 M323.2,35.8v33.3h-6.9V35.8H323.2z"/>
		<path fill="#FFFFFF" d="M351.1,36.8c2,1,3.6,2.3,4.7,3.8v-4.8h6.9v33.8c0,3.1-0.6,5.8-1.9,8.2c-1.3,2.4-3.2,4.3-5.6,5.6
			c-2.4,1.4-5.3,2.1-8.7,2.1c-4.5,0-8.3-1.1-11.2-3.2c-3-2.1-4.7-5-5.1-8.6h6.8c0.5,1.7,1.6,3.1,3.4,4.2c1.7,1.1,3.8,1.6,6.1,1.6
			c2.8,0,5-0.8,6.7-2.5s2.6-4.1,2.6-7.4v-5.6c-1.2,1.6-2.7,2.9-4.7,4c-2,1.1-4.3,1.6-6.8,1.6c-2.9,0-5.5-0.7-7.9-2.2
			c-2.4-1.5-4.3-3.5-5.7-6.2c-1.4-2.6-2.1-5.6-2.1-9c0-3.3,0.7-6.3,2.1-8.9c1.4-2.6,3.3-4.6,5.7-6c2.4-1.4,5-2.1,7.9-2.1
			C346.8,35.3,349.1,35.8,351.1,36.8z M354.4,46.4c-0.9-1.7-2.2-3-3.7-3.9c-1.5-0.9-3.2-1.3-5-1.3c-1.8,0-3.4,0.4-5,1.3
			c-1.5,0.9-2.8,2.1-3.7,3.8c-0.9,1.7-1.4,3.7-1.4,6s0.5,4.3,1.4,6c0.9,1.7,2.2,3.1,3.7,4c1.5,0.9,3.2,1.4,4.9,1.4
			c1.8,0,3.4-0.4,5-1.3c1.5-0.9,2.8-2.2,3.7-3.9c0.9-1.7,1.4-3.7,1.4-6S355.3,48.1,354.4,46.4z"/>
		<path fill="#FFFFFF" d="M375.5,68.2c-2.1-0.9-3.7-2.2-4.9-3.9c-1.2-1.6-1.9-3.5-1.9-5.5h7.1c0.1,1.4,0.8,2.6,2,3.5
			c1.2,0.9,2.8,1.4,4.6,1.4c1.9,0,3.4-0.4,4.5-1.1c1.1-0.7,1.6-1.7,1.6-2.9c0-1.2-0.6-2.2-1.8-2.8c-1.2-0.6-3.1-1.3-5.6-2
			c-2.5-0.7-4.5-1.3-6.1-2c-1.6-0.6-2.9-1.6-4.1-3c-1.1-1.3-1.7-3.1-1.7-5.3c0-1.8,0.5-3.4,1.6-4.9c1-1.5,2.5-2.6,4.5-3.5
			c2-0.8,4.2-1.3,6.7-1.3c3.8,0,6.8,1,9.2,2.9c2.3,1.9,3.6,4.5,3.7,7.8h-6.9c-0.1-1.5-0.7-2.7-1.8-3.6c-1.1-0.9-2.6-1.3-4.4-1.3
			c-1.8,0-3.2,0.3-4.2,1c-1,0.7-1.5,1.6-1.5,2.7c0,0.9,0.3,1.6,1,2.2c0.6,0.6,1.4,1.1,2.4,1.4c0.9,0.3,2.3,0.8,4.1,1.3
			c2.4,0.6,4.4,1.3,5.9,2c1.5,0.7,2.9,1.6,4,2.9c1.1,1.3,1.7,3,1.8,5.1c0,1.9-0.5,3.6-1.6,5.1c-1,1.5-2.5,2.7-4.4,3.5
			c-1.9,0.8-4.2,1.3-6.7,1.3C379.9,69.6,377.5,69.2,375.5,68.2z"/>
		<path fill="#FFFFFF" d="M400.9,68.2c-0.8-0.8-1.3-1.9-1.3-3.1c0-1.2,0.4-2.3,1.3-3.1s1.9-1.3,3.1-1.3c1.2,0,2.2,0.4,3.1,1.3
			s1.3,1.9,1.3,3.1c0,1.2-0.4,2.3-1.3,3.1s-1.9,1.3-3.1,1.3C402.8,69.5,401.8,69.1,400.9,68.2z"/>
	</g>
	<g>
	</g>
</g>
<g>
</g>
<g>
</g>
<g>
</g>
<g>
</g>
<g>
</g>
<g>
</g>
</svg>
